<svg id="Layer_1" data-name="Layer 1" xmlns="http://www.w3.org/2000/svg" xmlns:xlink="http://www.w3.org/1999/xlink" viewBox="0 0 239.33 237.88"><defs><style>.cls-1,.cls-4{fill:none;}.cls-2{clip-path:url(#clip-path);}.cls-3{fill:#ef4a39;}.cls-4{stroke:#ef4a39;stroke-linecap:round;stroke-linejoin:round;stroke-width:11px;}.cls-5{fill:#202c5d;}</style><clipPath id="clip-path"><rect class="cls-1" width="239.33" height="237.88"/></clipPath></defs><title>Artboard 14</title><g id="Sleep"><g class="cls-2"><g class="cls-2"><path class="cls-3" d="M119.67,1a118.25,118.25,0,0,1,83.91,34.55,117.43,117.43,0,0,1,0,166.78,119.18,119.18,0,0,1-167.83,0,117.43,117.43,0,0,1,0-166.78A118.28,118.28,0,0,1,119.67,1m0-1C53.58,0,0,53.25,0,118.94S53.58,237.88,119.67,237.88s119.66-53.25,119.66-118.94S185.76,0,119.67,0"/><rect class="cls-3" x="34.63" y="88.26" width="16.83" height="82.17"/><rect class="cls-3" x="192.32" y="121.3" width="16.83" height="49.13"/><rect class="cls-3" x="45.78" y="140.5" width="158.81" height="16.83"/><polyline class="cls-4" points="87.43 113.65 87.43 133.61 61.22 133.61"/><path class="cls-3" d="M80.83,113.65a13.11,13.11,0,1,1-13.11-13.11,13.11,13.11,0,0,1,13.11,13.11"/><path class="cls-3" d="M96.32,138.61V105.83h83.12c8.75,0,10.54,7.72,10.54,11.06v21.3Z"/><path class="cls-5" d="M73.83,92a.78.78,0,0,1-.23-.58V86A1.68,1.68,0,0,1,74,85L87.5,67.54a.28.28,0,0,0,0-.26c0-.1-.11-.14-.23-.14H74.41a.75.75,0,0,1-.58-.23.77.77,0,0,1-.23-.58V61.56a.79.79,0,0,1,.81-.81H95.28a.81.81,0,0,1,.59.23.78.78,0,0,1,.22.58V67a1.68,1.68,0,0,1-.36,1L82.1,85.45a.3.3,0,0,0,0,.27c0,.09.1.13.23.13h13a.81.81,0,0,1,.59.23.78.78,0,0,1,.22.58v4.77a.78.78,0,0,1-.22.58.81.81,0,0,1-.59.23H74.41a.78.78,0,0,1-.58-.23"/><path class="cls-5" d="M103.93,67.79a.58.58,0,0,1-.15-.41V63.62a1.14,1.14,0,0,1,.25-.68l9.42-12.18a.22.22,0,0,0,0-.19c0-.06-.07-.09-.16-.09h-9a.58.58,0,0,1-.41-.16.58.58,0,0,1-.15-.41V46.59a.55.55,0,0,1,.15-.4.54.54,0,0,1,.41-.16h14.53a.55.55,0,0,1,.56.56v3.76a1.15,1.15,0,0,1-.25.69l-9.49,12.18a.21.21,0,0,0,0,.19c0,.06.07.09.16.09h9.05a.55.55,0,0,1,.56.56v3.32a.54.54,0,0,1-.16.41.56.56,0,0,1-.4.16H104.34a.58.58,0,0,1-.41-.16"/><path class="cls-5" d="M127.64,54.13a.45.45,0,0,1-.12-.32v-3a.91.91,0,0,1,.19-.54l7.4-9.56a.16.16,0,0,0,0-.15s0-.07-.12-.07h-7a.41.41,0,0,1-.32-.13.44.44,0,0,1-.12-.32v-2.6a.41.41,0,0,1,.44-.44h11.4a.41.41,0,0,1,.44.44v2.95a.91.91,0,0,1-.19.54l-7.45,9.56a.16.16,0,0,0,0,.15s.05.07.12.07h7.1a.41.41,0,0,1,.44.44v2.61a.45.45,0,0,1-.12.32.44.44,0,0,1-.32.12H128a.44.44,0,0,1-.32-.12"/><path class="cls-5" d="M147.7,41.9a.37.37,0,0,1-.1-.25v-2.3a.74.74,0,0,1,.16-.42l5.77-7.47a.11.11,0,0,0,0-.11.08.08,0,0,0-.09-.06H148a.32.32,0,0,1-.25-.1.33.33,0,0,1-.1-.24v-2a.37.37,0,0,1,.1-.25.35.35,0,0,1,.25-.09h8.9a.35.35,0,0,1,.25.09.37.37,0,0,1,.1.25v2.3a.74.74,0,0,1-.16.43l-5.81,7.46a.11.11,0,0,0,0,.11.09.09,0,0,0,.1.06h5.54a.32.32,0,0,1,.25.1.34.34,0,0,1,.1.25v2a.37.37,0,0,1-.1.25.35.35,0,0,1-.25.09H148a.35.35,0,0,1-.25-.09"/></g></g></g></svg>