<svg id="Layer_1" data-name="Layer 1" xmlns="http://www.w3.org/2000/svg" xmlns:xlink="http://www.w3.org/1999/xlink" viewBox="0 0 239.33 237.88"><defs><style>.cls-1,.cls-5,.cls-6{fill:none;}.cls-2{clip-path:url(#clip-path);}.cls-3{fill:#ef4a39;}.cls-4{fill:#202c5d;}.cls-5,.cls-6{stroke:#ef4a39;stroke-linecap:round;stroke-miterlimit:10;}.cls-5{stroke-width:9px;}.cls-6{stroke-width:6px;}</style><clipPath id="clip-path"><rect class="cls-1" width="239.33" height="237.88"/></clipPath></defs><title>Artboard 18</title><g id="Fear"><g class="cls-2"><g class="cls-2"><path class="cls-3" d="M119.67,1a118.25,118.25,0,0,1,83.91,34.55,117.43,117.43,0,0,1,0,166.78,119.18,119.18,0,0,1-167.83,0,117.43,117.43,0,0,1,0-166.78A118.28,118.28,0,0,1,119.67,1m0-1C53.58,0,0,53.25,0,118.94S53.58,237.88,119.67,237.88s119.66-53.25,119.66-118.94S185.76,0,119.67,0"/><path class="cls-4" d="M169.35,140.28c2.21,2-.11,7.81-1,9.91-1.44,3.48-5.85,8.34-10.17,7.07-9.3-2.73-10.6-12.65-9.15-21.1.61-3.51-.27-6.65-.14-10.13a23.62,23.62,0,0,1,3.32-10.9c1.05-1.67,3.73-2.24,3.12-4.88-.43-1.84-2.84-4-1.12-6,2.05.88,4.22.24,4.27-2.6,0-1.28-1-2.57-.58-3.92s.94-.77,2-1.39c3.15-1.91.49-5.1-.48-7.37-.74-1.75-1.27-4-2.36-5.53C151,74.74,140.48,81.3,132.34,80c-7.1-1.13-11.23-9-18.64-10.7-7-1.64-13.45,1.54-15.71,8.33-2.7,8.12-1.83,13.76-10.24,17.75a22,22,0,0,0-5,3.24c-1.71,1.53-3,3.37-4.86,4.73-1.66,1.2-3.28,2.46-4.91,3.69s-3.2,1.84-4.67,2.92a8.4,8.4,0,0,0-3,8.91c1.14,3.47,2.73,6.24,6.26,3.8,1.72,1.36,2.42,6.78,5.09,6.4,1.23-.17,1.46-2,2.51-1.86,1.62.16,2.36,3,2.8,4.15.89,2.31,1.59,3.29,4,2.56,1.74-.53,2.61-2.77,4.45-2,1.56.65,1.21,2.29,2.22,3.17s2.45.4,3.45,1.19a8.41,8.41,0,0,1,1.86,2.93c.66,1.23,1.68,1.92,2.44,3.09,1.16,1.78,3.51,3.63,3.88,5.71.2,1.15,1.42,1.59,2.34,2.29a6.09,6.09,0,0,1,.65.58,100.88,100.88,0,0,0,7.71,7.19,79,79,0,0,0,8.85,6.1,66.38,66.38,0,0,0,20,7.8c7.67,1.62,20.42,1.2,25-6.5,4.12-7,7.44-18.92.63-25.18m-51-58.66c2.73-.76,6,2.53,7.38,7.37s.21,9.36-2.53,10.12-6-2.53-7.38-7.37-.21-9.36,2.53-10.12m-13.5,20.3c-2.84,0-5.14-4.06-5.14-9.07s2.3-9.08,5.14-9.08S110,87.83,110,92.85s-2.3,9.07-5.14,9.07m16.68,29.39c-4.51,1.25-10-4.18-12.17-12.15s-.35-15.44,4.16-16.69,10,4.19,12.17,12.15.35,15.43-4.16,16.69"/><polyline class="cls-5" points="30.72 92.84 121.23 40.76 208.33 92.84"/><polyline class="cls-5" points="53.51 97.89 53.51 187.1 184.99 187.1 184.99 97.89"/><polyline class="cls-6" points="165.11 55.96 165.11 38.15 190.15 38.15 190.15 70.44"/></g></g></g></svg>