<svg id="Layer_1" data-name="Layer 1" xmlns="http://www.w3.org/2000/svg" xmlns:xlink="http://www.w3.org/1999/xlink" viewBox="0 0 239.33 237.88"><defs><style>.cls-1,.cls-5{fill:none;}.cls-2{clip-path:url(#clip-path);}.cls-3{fill:#ef4a39;}.cls-4{clip-path:url(#clip-path-3);}.cls-5{stroke:#ef4a39;stroke-miterlimit:10;stroke-width:6px;}.cls-6{fill:#202c5d;}</style><clipPath id="clip-path"><rect class="cls-1" width="239.33" height="237.88"/></clipPath><clipPath id="clip-path-3"><path class="cls-1" d="M119.21,0C53.33.25,0,53.4,0,118.94c0,65.69,53.58,118.94,119.67,118.94,65.93,0,119.42-53,119.66-118.48v-.92C239.09,53.16,185.85.25,120.13,0Z"/></clipPath></defs><title>Artboard 11</title><g id="Touch_Heart" data-name="Touch Heart"><g class="cls-2"><g class="cls-2"><path class="cls-3" d="M119.67,1a118.25,118.25,0,0,1,83.91,34.55,117.43,117.43,0,0,1,0,166.78,119.18,119.18,0,0,1-167.83,0,117.43,117.43,0,0,1,0-166.78A118.28,118.28,0,0,1,119.67,1m0-1C53.58,0,0,53.25,0,118.94S53.58,237.88,119.67,237.88s119.66-53.25,119.66-118.94S185.76,0,119.67,0"/></g><g class="cls-4"><path class="cls-5" d="M75.76,76.49c5.45-6.45,13.52-10.7,24-10.7,22.39,0,33.66,11.27,37.9,22.16,5.44-10.89,22.42-22.16,40.09-21.32,16.73.81,34.69,16.18,29.59,40.41-6.61,31.4-58.57,43.44-68.84,79.13-8.16-19.57-25.57-31.91-41-43.41"/><path class="cls-6" d="M91.33,138.4a8,8,0,0,1,1.36,3.3,7.58,7.58,0,0,1-3.59,7.73,8.62,8.62,0,0,1-4.69,1.11c-6.22,0-12.43,0-18.65,0-3.11,0-6.23,0-9.34.11a14.31,14.31,0,0,1-9.51-3.2c-2-1.51-4.1-2.93-6.18-4.37a6.75,6.75,0,0,0-4-1.17c-5.89.07-40.24,0-46.13,0-1.72,0-2.4-.61-2.51-2.31q-.45-6.79-.88-13.59-.5-7.31-1-14.62c-.11-1.67-.2-3.34-.3-5a1.92,1.92,0,0,1,2-2.21c4.2,0,36.86,0,41.06,0,3.48,0,7,0,10.43,0,.54,0,.71-.16.81-.73.25-1.53.59-3,.95-4.55a5.22,5.22,0,0,1,2.94-3.45c2.09-1,4.21-2,6.35-2.92a26.45,26.45,0,0,0,9.46-6.47,28.42,28.42,0,0,0,4.15-5.9,4.43,4.43,0,0,1,5.64-2.09,9.67,9.67,0,0,1,6.4,7,12.38,12.38,0,0,1-1.36,9.34A23,23,0,0,1,71.4,99.1c-.12.13-.21.28-.4.53l.73.07H117a8.57,8.57,0,0,1,8.3,6.75,8.17,8.17,0,0,1-.23,5.1A6.68,6.68,0,0,1,119.4,116a50.42,50.42,0,0,1-6.15.16c-4.88,0-9.76,0-14.65,0-.14,0-.28,0-.49.05.19.56.4,1.07.54,1.59a7.52,7.52,0,0,1-3.85,8.85c-.38.2-.31.37-.13.65a7.37,7.37,0,0,1,1.18,4.84,7.56,7.56,0,0,1-4,6l-.56.32m-101.5-30.3c0,.24,0,.42,0,.61.15,2.26.31,4.51.46,6.77.2,3,.38,6,.58,8.93.29,4.31.6,8.61.87,12.91,0,.57.19.74.77.73H39.79a2.84,2.84,0,0,1,1.79.6c2.32,1.74,4.61,3.53,7,5.18a14.17,14.17,0,0,0,9,2.67c1.1-.06,2.2-.1,3.3-.09l16.2.17c2.81,0,5.62.08,8.43,0a3.64,3.64,0,0,0,3.44-3.82,3.78,3.78,0,0,0-3.75-3.61c-1.63,0-3.27,0-4.9-.08a2,2,0,0,1-1.82-2.58A2,2,0,0,1,80.61,135c2.53,0,5.06,0,7.58.05a3.68,3.68,0,0,0,3.58-4.93,3.71,3.71,0,0,0-3.57-2.51c-2.24,0-4.49,0-6.73,0a7,7,0,0,1-1.65-.11,2,2,0,0,1,.55-4l5.47,0c2,0,3.92.06,5.87,0A3.63,3.63,0,0,0,95,120.71a3.78,3.78,0,0,0-3.79-4.6c-3.51.11-7,0-10.55,0a2.12,2.12,0,0,1-1.62-.55,1.93,1.93,0,0,1-.51-2.19,1.9,1.9,0,0,1,1.9-1.3H112c2,0,4,0,6,0a3.33,3.33,0,0,0,3.4-2.34c.69-2.36-1-6.09-4.52-6.08-5.71,0-11.41,0-17.11,0l-19.22,0H60.84a2,2,0,0,1-2.17-2,2.06,2.06,0,0,1,2.17-2c1,0,2,0,3,0a2.61,2.61,0,0,0,2-.71,23.82,23.82,0,0,0,5.34-6.24,8.94,8.94,0,0,0,1.34-5.65A6.35,6.35,0,0,0,69,81.94c-1-.46-1.17-.35-1.7.58a34,34,0,0,1-5.75,7.54A29.55,29.55,0,0,1,52.36,96c-1.9.81-3.78,1.66-5.67,2.51a3.14,3.14,0,0,0-2.1,2.59c-.19,1.62-.51,3.22-.7,4.84s-.78,2.18-2.38,2.18H-9.35c-.26,0-.53,0-.82,0"/></g></g></g></svg>