<svg id="Layer_1" data-name="Layer 1" xmlns="http://www.w3.org/2000/svg" viewBox="0 0 44 44"><defs><style>.cls-1{fill:#010101;fill-rule:evenodd;}</style></defs><title>Artboard 22</title><g id="show_thumbnails"><path class="cls-1" d="M33,44a1,1,0,0,1-1-1V33a1,1,0,0,1,1-1H43a1,1,0,0,1,1,1V43a1,1,0,0,1-1,1ZM17,44a1,1,0,0,1-1-1V33a1,1,0,0,1,1-1H27a1,1,0,0,1,1,1V43a1,1,0,0,1-1,1ZM1,44a1,1,0,0,1-1-1V33a1,1,0,0,1,1-1H11a1,1,0,0,1,1,1V43a1,1,0,0,1-1,1ZM33,28a1,1,0,0,1-1-1V17a1,1,0,0,1,1-1H43a1,1,0,0,1,1,1V27a1,1,0,0,1-1,1ZM17,28a1,1,0,0,1-1-1V17a1,1,0,0,1,1-1H27a1,1,0,0,1,1,1V27a1,1,0,0,1-1,1ZM1,28a1,1,0,0,1-1-1V17a1,1,0,0,1,1-1H11a1,1,0,0,1,1,1V27a1,1,0,0,1-1,1ZM33,12a1,1,0,0,1-1-1V1a1,1,0,0,1,1-1H43a1,1,0,0,1,1,1V11a1,1,0,0,1-1,1ZM17,12a1,1,0,0,1-1-1V1a1,1,0,0,1,1-1H27a1,1,0,0,1,1,1V11a1,1,0,0,1-1,1ZM1,12a1,1,0,0,1-1-1V1A1,1,0,0,1,1,0H11a1,1,0,0,1,1,1V11a1,1,0,0,1-1,1Z"/></g></svg>