<svg id="Layer_1" data-name="Layer 1" xmlns="http://www.w3.org/2000/svg" xmlns:xlink="http://www.w3.org/1999/xlink" viewBox="0 0 239.33 237.88"><defs><style>.cls-1,.cls-6{fill:none;}.cls-2{clip-path:url(#clip-path);}.cls-3{fill:#ef4a39;}.cls-4{clip-path:url(#clip-path-3);}.cls-5{fill:#202c5d;}.cls-6{stroke:#202c5d;stroke-miterlimit:10;stroke-width:6px;}</style><clipPath id="clip-path"><rect class="cls-1" width="239.33" height="237.88"/></clipPath><clipPath id="clip-path-3"><path class="cls-1" d="M119.21,0C53.33.25,0,53.4,0,118.94c0,65.69,53.58,118.94,119.67,118.94,65.93,0,119.42-53,119.66-118.48v-.92C239.09,53.16,185.85.25,120.13,0Z"/></clipPath></defs><title>Artboard 20</title><g id="Breath"><g class="cls-2"><g class="cls-2"><path class="cls-3" d="M119.67,1a118.25,118.25,0,0,1,83.91,34.55,117.43,117.43,0,0,1,0,166.78,119.18,119.18,0,0,1-167.83,0,117.43,117.43,0,0,1,0-166.78A118.28,118.28,0,0,1,119.67,1m0-1C53.58,0,0,53.25,0,118.94S53.58,237.88,119.67,237.88s119.66-53.25,119.66-118.94S185.76,0,119.67,0"/></g><g class="cls-4"><path class="cls-3" d="M103.8,104.35c-19.89,0-36.07-15.69-36.07-35s16.18-35,36.07-35,36.07,15.7,36.07,35-16.18,35-36.07,35m0-64.84c-17.06,0-30.94,13.39-30.94,29.86S86.74,99.22,103.8,99.22s30.94-13.39,30.94-29.85S120.86,39.51,103.8,39.51"/><path class="cls-3" d="M123.42,431.78c-7.1,0-12.88-6.54-12.88-14.59,0-7.37-4.55-90-6.74-129.27-2.11,39.35-6.49,122.14-6.49,129.38,0,7.92-5.92,14.37-13.19,14.37s-13.25-6.45-13.25-14.37c0-7.65-3.63-166.78-5.09-230.1-3.38,28.08-7.56,63.61-7.56,67.24,0,6.8-3.9,12.13-8.87,12.13s-8.77-5.33-8.77-12.13c0-2.16,1.27-14.34,3.51-35.68,2.82-26.87,6.34-60.3,6.34-67.15,0-23.75,20.66-44.09,37.58-44.09h31.56c16.9,0,37.54,20.34,37.54,44.09,0,7.27,3.85,45.52,6.66,73.44,1.93,19.12,2.93,29.16,2.93,30.65,0,5.39-3.74,9.61-8.52,9.61s-8.6-4.31-8.6-9.61c0-2.51-4-36.63-7.85-68.59-1.53,63.22-5.37,222.28-5.37,230.08,0,8.05-5.8,14.59-12.94,14.59M102.34,264.69h2.87a2.57,2.57,0,0,1,2.56,2.42c.32,5.72,7.9,140.28,7.9,150.08,0,5.22,3.48,9.46,7.75,9.46s7.81-4.24,7.81-9.46c0-9.76,5.74-245.71,6-255.75a2.55,2.55,0,0,1,2.56-2.5h1.43a2.55,2.55,0,0,1,2.54,2.25c1.12,9.19,11,89.95,11,94.51,0,2.43,1.59,4.49,3.47,4.49s3.39-2,3.39-4.49c0-1.33-1.41-15.33-2.9-30.14-2.82-28-6.69-66.42-6.69-73.95,0-22.23-19.66-39-32.41-39H88c-12.77,0-32.45,16.73-32.45,39,0,7.12-3.53,40.7-6.37,67.68-1.79,17.06-3.48,33.16-3.48,35.15,0,4,1.92,7,3.64,7s3.74-3,3.74-7c0-6.24,10.25-89.7,10.69-93.25a2.56,2.56,0,0,1,2.55-2.25h1.43a2.56,2.56,0,0,1,2.56,2.5C70.55,171.49,76,407.73,76,417.3c0,5.09,3.64,9.24,8.12,9.24s8.06-4.15,8.06-9.24c0-9.61,7.29-144.45,7.6-150.19a2.56,2.56,0,0,1,2.56-2.42"/><path class="cls-5" d="M83.47,144.92c-4,4.1-6.07,21.76-6.55,28-.5,6.57,1.77,22.73,7.3,27.22,6,4.88,10.4-3.23,12.13-8.18,3.93-11.22,2.82-21.34.06-32.6-1-4.13-5.14-19.76-12.94-14.46"/><path class="cls-5" d="M124.6,144.92c4,4.1,6.08,21.76,6.56,28,.49,6.57-1.77,22.73-7.3,27.22-6,4.88-10.4-3.23-12.13-8.18-3.93-11.22-2.82-21.34-.07-32.6,1-4.13,5.15-19.76,12.94-14.46"/><line class="cls-6" x1="88.78" y1="146.71" x2="103.64" y2="131.82"/><line class="cls-6" x1="118.75" y1="146.71" x2="105.21" y2="131.82"/><path class="cls-6" d="M104.39,133.75V90.42c0-7.15,5.36-10.68,10.69-10.68h19.66"/><polygon class="cls-5" points="147.01 71.9 153.77 66.35 160.53 60.79 160.53 71.9 160.53 83.02 153.77 77.46 147.01 71.9"/><rect class="cls-5" x="158.07" y="66.77" width="17.19" height="10.26"/><polygon class="cls-5" points="198.54 88.15 191.78 93.7 185.02 99.26 185.02 88.15 185.02 77.03 191.78 82.59 198.54 88.15"/><rect class="cls-5" x="170.3" y="83.02" width="17.19" height="10.26"/></g></g></g></svg>