<svg id="Layer_1" data-name="Layer 1" xmlns="http://www.w3.org/2000/svg" xmlns:xlink="http://www.w3.org/1999/xlink" viewBox="0 0 239.33 237.88"><defs><style>.cls-1{fill:none;}.cls-2{clip-path:url(#clip-path);}.cls-3{fill:#ef4a39;}.cls-4,.cls-5{fill:#202c5d;}.cls-4{fill-rule:evenodd;}.cls-6{fill:#f06657;}</style><clipPath id="clip-path"><rect class="cls-1" width="239.33" height="237.88"/></clipPath></defs><title>Artboard 15</title><g id="No_Judgement" data-name="No Judgement"><g class="cls-2"><g class="cls-2"><path class="cls-3" d="M119.67,1a118.25,118.25,0,0,1,83.91,34.55,117.43,117.43,0,0,1,0,166.78,119.18,119.18,0,0,1-167.83,0,117.43,117.43,0,0,1,0-166.78A118.28,118.28,0,0,1,119.67,1m0-1C53.58,0,0,53.25,0,118.94S53.58,237.88,119.67,237.88s119.66-53.25,119.66-118.94S185.76,0,119.67,0"/><path class="cls-4" d="M99.16,41.84l35.45,20.47a5.85,5.85,0,1,1-5.85,10.13L93.32,52a5.85,5.85,0,1,1,5.84-10.13"/><rect class="cls-5" x="77.42" y="64.53" width="40.93" height="40.93" transform="translate(-24.66 127.26) rotate(-60)"/><path class="cls-4" d="M67,97.55,102.45,118a5.85,5.85,0,1,1-5.85,10.13L61.15,107.67A5.84,5.84,0,1,1,67,97.55"/><path class="cls-4" d="M118.53,90.16l64.76,34a8.77,8.77,0,0,1-8.77,15.2l-61.84-39.08Z"/><path class="cls-4" d="M47.45,163.21v-5.85a5.84,5.84,0,0,1,5.84-5.84H106a5.85,5.85,0,0,1,5.85,5.84v5.85l5.85,5.85H41.6Z"/><path class="cls-6" d="M210.63,94.44c.17,0,.24,0,.5.11a10.36,10.36,0,0,1,3.22,2.38,3.63,3.63,0,0,1,.93,2.35,5.69,5.69,0,0,1-1.64,3.7,2.89,2.89,0,0,1-.78.6,37.82,37.82,0,0,1-4.37.75c-1.35.18-2.62.31-3.77.48l-.84.13-.92.16-1.87.35c-1.25.24-2.49.49-3.73.76q-5.16,1.1-10.25,2.45-2.55.68-5.07,1.43c-.88.26-1.55.48-2.31.74l-1.12.42-1.11.46a75.53,75.53,0,0,0-8.91,4.8L164,119.34l-2.39,1.43-2.29,1.32a30.66,30.66,0,0,0-5.88,4.74s-.63.53-1.74,1.52-2.7,2.44-4.77,4.06c-.52.41-1.07.81-1.64,1.22l-1.59,1.11c-1,.74-2.13,1.51-3.19,2.3a71.94,71.94,0,0,0-5.93,4.9,43.72,43.72,0,0,0-3.4,3.72c-.45.52-.79,1-1.14,1.42s-.6.8-.87,1.11c-1,1.27-1.54,1.59-1.85,1a3.34,3.34,0,0,1-.21-1.48,11.7,11.7,0,0,1,.43-2.53,24.51,24.51,0,0,1,3.19-6.77,16.29,16.29,0,0,1,2.16-3,75.29,75.29,0,0,1,6.25-6.69l.9-.86.78-.77c.5-.52,1-1,1.48-1.57.95-1.05,1.85-2.11,2.65-3.05,1.6-1.88,2.85-3.21,2.85-3.21a38,38,0,0,1,6.7-5.19l2.37-1.38,2.24-1.34,4.59-2.83a82.67,82.67,0,0,1,10.07-5.41l1.38-.57,1.41-.53c.93-.33,2-.67,2.81-.91q2.64-.78,5.31-1.5Q190,98.17,195.4,97c1.3-.27,2.61-.54,3.91-.79l2-.37,1-.18,1.09-.17c1.42-.2,2.74-.34,3.95-.49a30.72,30.72,0,0,0,3.32-.57"/><path class="cls-6" d="M147.3,80.59a1.15,1.15,0,0,1,0-.85,6.93,6.93,0,0,1,.32-1.18,5.75,5.75,0,0,1,.59-1.16,3.57,3.57,0,0,1,1.9-1.49,4.3,4.3,0,0,1,2.53.16c.93.3,1.92.74,3.12,1.26a2.06,2.06,0,0,1,.5.36,26.39,26.39,0,0,0,3.07,5.8l2.15,3.32.56.92.55,1c.31.54.61,1.07.93,1.61,3.34,5.72,7.52,11.41,11,18l.63,1.25.63,1.31c.39.88.77,1.76,1.11,2.65.69,1.76,1.27,3.53,1.8,5.26,1.06,3.48,1.9,6.86,2.86,10,.83,2.74,1.68,5.51,2.54,8.24l2,8.08c.58,2.32,1.24,4.93,2,7.55l1.07,3.91c.18.65.36,1.28.53,1.91s.34,1.17.52,1.76c.68,1.93,1.34,3.65,1.71,5.12a12.55,12.55,0,0,1,.5,3.53c-.09,1.75-.61,2.18-1.1,1.81a16.19,16.19,0,0,1-2.08-2.86c-1-1.44-2.36-3.22-3.85-5.64a17.27,17.27,0,0,1-1.79-3.18c-1.08-2.11-2.47-5.07-3.78-8.08s-2.55-6.09-3.45-8.4l-1.5-3.87-2.21-7.19c-1-3.47-1.88-6.83-2.85-10-.48-1.58-1-3.12-1.57-4.59-.28-.73-.59-1.45-.91-2.15l-.49-1-.55-1.08c-3-5.74-7.07-11.31-10.76-17.57-.34-.58-.68-1.18-1-1.78l-.42-.72-.46-.75-2.08-3.22a34.65,34.65,0,0,1-4.12-8"/></g></g></g></svg>