<svg id="Layer_1" data-name="Layer 1" xmlns="http://www.w3.org/2000/svg" xmlns:xlink="http://www.w3.org/1999/xlink" viewBox="0 0 239.33 237.88"><defs><style>.cls-1{fill:none;}.cls-2{clip-path:url(#clip-path);}.cls-3{fill:#ef4a39;}.cls-4{clip-path:url(#clip-path-3);}.cls-5{fill:#202c5d;}</style><clipPath id="clip-path"><rect class="cls-1" width="239.33" height="237.88"/></clipPath><clipPath id="clip-path-3"><path class="cls-1" d="M119.21,0C53.33.25,0,53.4,0,118.94c0,65.69,53.58,118.94,119.67,118.94,65.93,0,119.42-53,119.66-118.48v-.92C239.09,53.16,185.85.25,120.13,0Z"/></clipPath></defs><title>Artboard 19</title><g id="Exercise"><g class="cls-2"><g class="cls-2"><path class="cls-3" d="M119.67,1a118.25,118.25,0,0,1,83.91,34.55,117.43,117.43,0,0,1,0,166.78,119.18,119.18,0,0,1-167.83,0,117.43,117.43,0,0,1,0-166.78A118.28,118.28,0,0,1,119.67,1m0-1C53.58,0,0,53.25,0,118.94S53.58,237.88,119.67,237.88s119.66-53.25,119.66-118.94S185.76,0,119.67,0"/></g><g class="cls-4"><path class="cls-3" d="M199.15,118.63c-1,1.56-1.66,3.48-3.65,4.17a10.31,10.31,0,0,1-3.09.84c-9.42.07-18.84-.11-28.25.1-4.76.1-7.32-2.66-8.44-6.85-1.36-5-3.05-10-4.65-15.19l-27,17c1.66,3.84,3.23,7.57,4.87,11.26q5,11.21,10,22.38c.85,1.9,2.08,3.67,2.62,5.64,1.14,4.18-1.83,8.66-6.11,8.69-17.31.12-34.63.07-51.95,0a6.58,6.58,0,0,1-6.11-4.87c-1-3.61.17-7,3-8.29A11.41,11.41,0,0,1,85,152.32c11.26-.1,22.53,0,34.16,0-.9-1.31-1.65-2.42-2.42-3.51-7-9.83-14.07-19.65-21.06-29.5-2-2.88-3.9-5.84-3.87-9.6a10.43,10.43,0,0,1,2.63-6.59c3.34-4.16,7.8-6.91,12.25-9.66,6.43-4,12.9-7.92,19.35-11.88q4.27-2.62,8.53-5.29a12.23,12.23,0,0,0,1-.78c-2.89-2.59-5.73-5.11-8.55-7.65-1.66-1.49-3.28-3-4.93-4.52-1.15-1-2.29-2.09-3.47-3.11a1.13,1.13,0,0,0-.84-.25c-5.64,1.12-11.28,2.27-16.92,3.41-5.21,1-10.41,2.15-15.63,3.13-2.28.44-6-1.51-7.07-3.41-2-3.75-1.16-6.53.62-8.78,1.64-2.08,4.3-2.44,6.79-2.92Q97,49.13,108.33,46.83c3.55-.71,7.07-1.56,10.64-2.15s5.94,1.53,8.47,3.42c8,6,15.82,12.29,24.12,17.85,4,2.66,5.89,6.42,8.11,10.14,1.42,2.35,3,4.6,3.66,7.45,1.81,8.17,3.9,16.29,5.86,24.43a7.45,7.45,0,0,1,.09,1.25h10.83c3.42,0,6.85.14,10.25,0,4.27-.23,7.19,1.45,8.79,5.42Z"/><path class="cls-3" d="M89.17,209.78a8.78,8.78,0,0,1-4.78-5.69c-.82-3.08.55-5.3,2.47-7.25,7.38-7.51,14.86-14.92,22.33-22.35a2.33,2.33,0,0,1,1.41-.67c7.57,0,15.13,0,22.69,0a3.31,3.31,0,0,1,.71.18c-4.73,4.35-9.32,8.59-13.94,12.8s-9.15,8.26-13.72,12.38c-3.38,3.05-6.75,6.11-10.16,9.12a17.75,17.75,0,0,1-2.3,1.49Z"/><path class="cls-3" d="M174.1,37.58c9.38-.65,18.52,8.22,18.06,18.74-.38,8.7-8.25,17.77-19,17.3A18.34,18.34,0,0,1,156,53.86c.61-8,8.16-16.88,18.08-16.28"/><path class="cls-5" d="M-6.64,88V80.71H105.41c-2.92,1.83-5.64,3.26-8,5.11-2.67,2.08-5.58,2.25-8.75,2.24C68.8,88,15.31,88-4.52,88Z"/><path class="cls-5" d="M88.26,131H-6.63v-7.32h1.77c17.65,0,69,0,86.62,0a2.36,2.36,0,0,1,2.3,1.15c1.3,2,2.7,4,4.2,6.2"/><path class="cls-5" d="M-6.68,109.44v-7.15H79.11c-.7,2.29-1.42,4.61-2.2,7.15Z"/></g></g></g></svg>