<svg id="Layer_1" data-name="Layer 1" xmlns="http://www.w3.org/2000/svg" xmlns:xlink="http://www.w3.org/1999/xlink" viewBox="0 0 239.33 238.13"><defs><style>.cls-1,.cls-7{fill:none;}.cls-2{clip-path:url(#clip-path);}.cls-3{fill:#ef4a39;}.cls-4{clip-path:url(#clip-path-3);}.cls-5{fill:#f06657;}.cls-6{fill:#414c76;}.cls-7{stroke:#f06657;stroke-linecap:round;stroke-miterlimit:10;stroke-width:5px;}</style><clipPath id="clip-path"><rect class="cls-1" width="239.33" height="238.13"/></clipPath><clipPath id="clip-path-3"><path class="cls-1" d="M0,119.19c0,65.69,53.58,118.94,119.67,118.94,65.93,0,119.42-53,119.66-118.48v-.92C239.09,53.26,185.6.25,119.67.25,53.58.25,0,53.5,0,119.19"/></clipPath></defs><title>Artboard 10</title><g id="Unplug"><g class="cls-2"><g class="cls-2"><path class="cls-3" d="M119.67,1a118.25,118.25,0,0,1,83.91,34.55,117.43,117.43,0,0,1,0,166.78,119.18,119.18,0,0,1-167.83,0,117.43,117.43,0,0,1,0-166.78A118.28,118.28,0,0,1,119.67,1m0-1C53.58,0,0,53.25,0,118.94S53.58,237.88,119.67,237.88s119.66-53.25,119.66-118.94S185.76,0,119.67,0"/></g><g class="cls-4"><path class="cls-5" d="M85.93,142.59H71.45a4,4,0,0,1-4-4V95.33a4,4,0,0,1,4-4H85.93a4,4,0,0,1,4,4v43.26a4,4,0,0,1-4,4"/><path class="cls-6" d="M159.28,142.59H144.8a4,4,0,0,1-4-4V95.33a4,4,0,0,1,4-4h14.48a4,4,0,0,1,4,4v43.26a4,4,0,0,1-4,4"/><path class="cls-5" d="M61.81,135.79l-22.38-7.32c-1.26,0-2.29-.63-2.29-1.41V106.85c0-.77,1-1.4,2.29-1.4l22.38-7.33a2.31,2.31,0,0,1,2.3,2.3V133.5a2.3,2.3,0,0,1-2.3,2.29"/><path class="cls-6" d="M168.47,98.12l22.38,2.71a2.15,2.15,0,0,1,2.29,2v28.33a2.15,2.15,0,0,1-2.29,2l-22.38,2.7a2.3,2.3,0,0,1-2.3-2.29V100.42a2.31,2.31,0,0,1,2.3-2.3"/><rect class="cls-5" x="91.96" y="103.22" width="24.72" height="4.66"/><rect class="cls-5" x="91.96" y="126.04" width="24.72" height="4.66"/><rect class="cls-6" x="195.9" y="111.5" width="61.42" height="10.91"/><rect class="cls-5" x="-28.32" y="111.5" width="61.42" height="10.91"/><line class="cls-7" x1="124.21" y1="74.17" x2="141.37" y2="34.95"/><line class="cls-7" x1="108.53" y1="74.18" x2="94.44" y2="29.29"/><line class="cls-7" x1="92.02" y1="76.84" x2="66.08" y2="56.89"/><line class="cls-7" x1="137.52" y1="76.84" x2="166.56" y2="61.77"/><line class="cls-7" x1="108.57" y1="158.7" x2="90.76" y2="201.38"/><line class="cls-7" x1="127.8" y1="158.69" x2="144.24" y2="198.25"/><line class="cls-7" x1="145.65" y1="156.03" x2="177.63" y2="170.86"/><line class="cls-7" x1="92.02" y1="156.03" x2="62.98" y2="171.1"/></g></g></g></svg>