<svg id="Layer_1" data-name="Layer 1" xmlns="http://www.w3.org/2000/svg" xmlns:xlink="http://www.w3.org/1999/xlink" viewBox="0 0 239.33 237.88"><defs><style>.cls-1{fill:none;}.cls-2{clip-path:url(#clip-path);}.cls-3{fill:#ef4a39;}.cls-4{fill:#202c5d;}.cls-5{fill:#fff;}</style><clipPath id="clip-path"><rect class="cls-1" width="239.33" height="237.88"/></clipPath></defs><title>Artboard 9</title><g id="Worry_Time" data-name="Worry Time"><g class="cls-2"><g class="cls-2"><path class="cls-3" d="M119.67,1a118.25,118.25,0,0,1,83.91,34.55,117.43,117.43,0,0,1,0,166.78,119.18,119.18,0,0,1-167.83,0,117.43,117.43,0,0,1,0-166.78A118.28,118.28,0,0,1,119.67,1m0-1C53.58,0,0,53.25,0,118.94S53.58,237.88,119.67,237.88s119.66-53.25,119.66-118.94S185.76,0,119.67,0"/><polygon class="cls-3" points="140.4 90.52 167.83 42.26 159.47 33.89 140.99 31.4 140.4 90.52"/><path class="cls-4" d="M202.71,89.87A62.5,62.5,0,1,1,140.8,27.39a62.52,62.52,0,0,1,61.91,62.48m-59.46,55.37a54.51,54.51,0,0,0,22.51-6.14c-.21-.37-.38-.68-.56-1a2.48,2.48,0,1,1,4.25-2.55c.2.34.4.68.61,1,5.25-2.84,15.37-13,16.82-16.88l-.95-.56a2.48,2.48,0,1,1,2.52-4.27l1,.55a54.75,54.75,0,0,0,6.14-22.5H191.2a3,3,0,1,1,0-6.05h4.36a54.9,54.9,0,0,0-6.14-22.51l-1,.57a2.47,2.47,0,0,1-2.53-4.24l1.08-.64a55.89,55.89,0,0,0-16.88-16.87l-.61,1a2.48,2.48,0,1,1-4.23-2.58c.18-.3.35-.61.53-.93a55,55,0,0,0-22.51-6.15v.58c0,1.32.05,2.64,0,4a3.49,3.49,0,0,1-.53,1.62,2.92,2.92,0,0,1-3.44,1.16,3,3,0,0,1-2-2.88c0-1.3,0-2.61,0-3.92a4.81,4.81,0,0,0,0-.52,55,55,0,0,0-22.48,6.15l.58,1a2.55,2.55,0,0,1-.8,3.34,2.5,2.5,0,0,1-3.43-.78c-.23-.34-.43-.7-.67-1.09A56,56,0,0,0,93.51,60.06l1,.58a2.5,2.5,0,0,1,.9,3.48,2.52,2.52,0,0,1-3.45.77c-.29-.17-.6-.33-.93-.51a54.68,54.68,0,0,0-6.14,22.5h.58c1.3,0,2.61,0,3.92,0a3,3,0,0,1,.69,5.93,4.92,4.92,0,0,1-1.15.1c-1.33,0-2.67,0-4,0A55.14,55.14,0,0,0,91,115.44c.39-.22.75-.43,1.11-.62a2.48,2.48,0,1,1,2.18,4.46l-.8.46a55.89,55.89,0,0,0,16.87,16.88l.58-1a2.48,2.48,0,0,1,3.51-.88,2.51,2.51,0,0,1,.75,3.41l-.52.94a54.93,54.93,0,0,0,22.51,6.13v-.59c0-1.26,0-2.52,0-3.78a3,3,0,1,1,6,0c0,1.27,0,2.55,0,3.82Z"/><path class="cls-4" d="M137.63,66.29v-18a2.6,2.6,0,0,1,5.19-.1c0,3.11,0,6.22,0,9.34V62.7q0,10.85,0,21.69a.79.79,0,0,0,.42.76,5.63,5.63,0,1,1-6.62,9.08,3.33,3.33,0,0,1-.74-.76,1.19,1.19,0,0,0-1.2-.56H113.14a3,3,0,0,1-2.83-4.21,2.87,2.87,0,0,1,2.49-1.8,5.1,5.1,0,0,1,.68,0h21.44a1,1,0,0,0,.85-.41,7.87,7.87,0,0,1,1.44-1.33.81.81,0,0,0,.42-.81c0-5.2,0-10.39,0-15.59Z"/><path class="cls-5" d="M26.24,152A51.26,51.26,0,1,1,77.5,203.26,51.26,51.26,0,0,1,26.24,152"/><path class="cls-3" d="M77.52,198.13c-25.79,0-46.77-20.35-46.77-45.36s21-45.38,46.77-45.38,46.77,20.36,46.77,45.38-21,45.36-46.77,45.36m0-84.09C55.4,114,37.4,131.41,37.4,152.77s18,38.71,40.12,38.71,40.12-17.36,40.12-38.71S99.64,114,77.52,114"/><path class="cls-4" d="M64.23,172.84a1.3,1.3,0,0,1-.75-2.36c.36-.25,8.89-6.17,17.34-6.17s16.67,5.93,17,6.19a1.3,1.3,0,0,1-1.53,2.09c-.08-.06-7.89-5.68-15.49-5.68S65.05,172.55,65,172.6a1.3,1.3,0,0,1-.74.24"/><path class="cls-4" d="M71.33,144.65c0,4.2-2.84,7.61-6.34,7.61s-6.35-3.41-6.35-7.61S61.48,137,65,137s6.34,3.41,6.34,7.61"/><path class="cls-4" d="M99.49,144.65c0,4.2-2.84,7.61-6.34,7.61s-6.34-3.41-6.34-7.61S89.65,137,93.15,137s6.34,3.41,6.34,7.61"/><path class="cls-4" d="M53.9,159.54a7.44,7.44,0,1,1-14.87,0c0-4.11,7.43-14.64,7.43-14.64s7.44,10.53,7.44,14.64"/></g></g></g></svg>