<svg id="Layer_1" data-name="Layer 1" xmlns="http://www.w3.org/2000/svg" xmlns:xlink="http://www.w3.org/1999/xlink" viewBox="0 0 239.33 237.88"><defs><style>.cls-1{fill:none;}.cls-2{clip-path:url(#clip-path);}.cls-3,.cls-6{fill:#ef4a39;}.cls-4{clip-path:url(#clip-path-3);}.cls-5{fill:#202c5d;}.cls-6{fill-rule:evenodd;}</style><clipPath id="clip-path"><rect class="cls-1" width="239.33" height="237.88"/></clipPath><clipPath id="clip-path-3"><path class="cls-1" d="M119.21,0C53.33.25,0,53.4,0,118.94c0,65.69,53.58,118.94,119.67,118.94,65.93,0,119.42-53,119.66-118.48v-.92C239.09,53.16,185.85.25,120.13,0Z"/></clipPath></defs><title>Artboard 16</title><g id="Mindful"><g class="cls-2"><g class="cls-2"><path class="cls-3" d="M119.67,1a118.25,118.25,0,0,1,83.91,34.55,117.43,117.43,0,0,1,0,166.78,119.18,119.18,0,0,1-167.83,0,117.43,117.43,0,0,1,0-166.78A118.28,118.28,0,0,1,119.67,1m0-1C53.58,0,0,53.25,0,118.94S53.58,237.88,119.67,237.88s119.66-53.25,119.66-118.94S185.76,0,119.67,0"/></g><g class="cls-4"><path class="cls-3" d="M114,81.12l-2.18-5.23c-3.19-7.63-9.86-12.57-16.32-17.36l-.79-.59L97,54.75l.78.59c5.5,4.07,11.62,8.6,15.58,15,3.24-6.16,9.09-10.57,14.77-14.86,6.18-4.66,12-9.07,13.27-15a12,12,0,0,0-11-15.09c-6.66-.32-13.38,3.94-15.47,8.13l-2,4-1.63-4.18C108.46,25.85,100.24,25,96.84,25A11.22,11.22,0,0,0,88,29l-3-2.56a15.09,15.09,0,0,1,11.92-5.34c9.47,0,14.28,4.25,16.63,7.76a22.53,22.53,0,0,1,17.2-7.39,16.14,16.14,0,0,1,11.84,6.22,16.41,16.41,0,0,1,2.81,13.65c-1.56,7.43-8.27,12.49-14.76,17.39s-13,9.79-15,17Z"/><path class="cls-3" d="M83,80.94H62.61V64.08A19.18,19.18,0,1,1,83,64.69Zm-17.54-2.8H80.15V63l.75-.4a16.37,16.37,0,1,0-16.16-.5l.67.41Z"/><path class="cls-3" d="M71.12,93a9.76,9.76,0,0,1-1.76-.23l-.51-.09c-.66-.11-1.29-.26-1.89-.41l-.56-.13a4.83,4.83,0,0,0-.63-.07,4.51,4.51,0,0,1-.86-.1,2.13,2.13,0,0,1-1.49-1,1.15,1.15,0,0,1,0-1,1.64,1.64,0,0,1,.55-.56,2,2,0,0,1-.66-.73,1,1,0,0,1,.34-1.47l-.05,0c-.37-.25-1.23-.85-.76-1.76a1.77,1.77,0,0,1,.86-.72l.2-.1-.16-.15a1.42,1.42,0,0,1-.52-1.11,1.45,1.45,0,0,1,.77-1l.13-.09L64,82c-.35-.21-.79-.46-.87-1-.15-.94.82-1.25,1.28-1.39a2.45,2.45,0,0,0,.4-.15l.19-.14h9.29c.5,0,1,0,1.5,0h4.88l.19.15.4.14c.46.14,1.42.45,1.28,1.38-.08.52-.52.77-.88,1a1.45,1.45,0,0,0-.19.12l.13.09a1.5,1.5,0,0,1,.77,1,1.45,1.45,0,0,1-.52,1.11l-.17.15.2.1a1.76,1.76,0,0,1,.86.71c.47.92-.39,1.52-.75,1.77l0,0a1,1,0,0,1,.34,1.47,2.12,2.12,0,0,1-.66.73,1.58,1.58,0,0,1,.54.55,1.15,1.15,0,0,1,0,1c-.45,1-2.22,1.38-2.76,1.49a41.91,41.91,0,0,1-8.17.56h-.11M64.9,90.45a2,2,0,0,0,.39.15,3.73,3.73,0,0,0,.56.05,6.09,6.09,0,0,1,.87.1l.57.14c.6.15,1.18.29,1.79.39l.54.09a8.53,8.53,0,0,0,1.59.2A41.18,41.18,0,0,0,79.12,91a5.07,5.07,0,0,0,1.6-.58l-.14-.08a1.91,1.91,0,0,1-.92-.86l-.23-.59.71-.37a4.29,4.29,0,0,0,.73-.42,1.68,1.68,0,0,1-.21-.18l-.14-.12a.94.94,0,0,1-.39-.75.84.84,0,0,1,.44-.68l.22-.17a3.58,3.58,0,0,1,.37-.28l.09-.06h0a3.13,3.13,0,0,1-.57-.35,1.39,1.39,0,0,1-.58-1,1.35,1.35,0,0,1,.6-1l.13-.13,0,0a1.4,1.4,0,0,1-.71-1.78,1.53,1.53,0,0,1,.62-.64,3.85,3.85,0,0,1-.47-.19H65.4a4,4,0,0,1-.48.19,1.45,1.45,0,0,1,.62.65,1.4,1.4,0,0,1-.7,1.77l0,0,.14.13a1.34,1.34,0,0,1,.59,1,1.38,1.38,0,0,1-.57,1,3.51,3.51,0,0,1-.57.35h0l.09.06c.13.09.26.18.38.28l.22.17a.86.86,0,0,1,.44.68.92.92,0,0,1-.4.75L65,88l-.22.18a4.72,4.72,0,0,0,.73.42l.71.37-.23.59a1.86,1.86,0,0,1-.92.86l-.12.07"/><path class="cls-3" d="M68.94,46.14a.7.7,0,0,1-.57-.29c-.33-.45-.65-.93-1-1.44a14.52,14.52,0,0,0-2.57-3.25.71.71,0,0,1-.1-1,.7.7,0,0,1,1-.09,15.44,15.44,0,0,1,2.85,3.56c.33.5.63,1,.94,1.39a.7.7,0,0,1-.15,1,.71.71,0,0,1-.41.13"/><path class="cls-3" d="M73.53,44.69h-.11a.7.7,0,0,1-.58-.8,15.3,15.3,0,0,0-.32-4.57c-.12-.7-.23-1.37-.3-2a.71.71,0,0,1,.62-.78.7.7,0,0,1,.77.62c.07.59.18,1.24.29,1.92a16.14,16.14,0,0,1,.32,5,.69.69,0,0,1-.69.58"/><path class="cls-3" d="M78.27,44.15a.7.7,0,0,1-.15-1.38,19.5,19.5,0,0,0,4.23-1.83A.7.7,0,1,1,83,42.18a19.9,19.9,0,0,1-4.58,2l-.16,0"/><path class="cls-3" d="M81.1,49a13.25,13.25,0,0,1-2.76-.25.7.7,0,1,1,.29-1.37,17.78,17.78,0,0,0,4.93.09.7.7,0,0,1,.13,1.4c-.78.07-1.67.13-2.59.13"/><path class="cls-3" d="M80.48,55.8a.69.69,0,0,1-.51-.23,21.64,21.64,0,0,0-2.66-2.27l-1.16-.91A.7.7,0,1,1,77,51.3l1.13.89A22.34,22.34,0,0,1,81,54.62a.71.71,0,0,1,0,1,.75.75,0,0,1-.48.19"/><path class="cls-3" d="M68.24,50.07c-.86,0-1.7-.06-2.52-.12a21.12,21.12,0,0,0-3.81,0,.7.7,0,1,1-.16-1.39,22.09,22.09,0,0,1,4.07,0,27.47,27.47,0,0,0,3.28.09A.7.7,0,1,1,69.18,50l-.94,0"/><path class="cls-3" d="M66.82,56.5a.74.74,0,0,1-.51-.22.71.71,0,0,1,0-1,21,21,0,0,1,5.18-3.78.7.7,0,1,1,.59,1.27,19.73,19.73,0,0,0-4.81,3.53.68.68,0,0,1-.48.19"/><path class="cls-5" d="M96.36,204.71c-.1-2.17-.31-4.35-.29-6.52,0-5.9-2-10-8.3-11.55-4-1-4.81-3.28-2.59-7,3.27-5.49,7.14-10.62,10.42-16.1,1.1-1.82,2-4.43,1.59-6.37-3-14,1.88-25.45,10.92-35.59,9.6-10.78,21.92-16.1,36.16-17.22,11.65-.92,23,.24,34,4.52,19.15,7.49,29.22,23.29,29.25,45.2a46.46,46.46,0,0,1-7.95,26.42c-2.69,4.05-5.61,7.95-8.47,11.89-8.71,12-9.39,24.77-3.45,38.12,2.11,4.74,1.82,5.53-3.14,7.11-16.93,5.39-34.07,6.87-51.48,2.57-7.13-1.76-7.69-2.55-8-9.84-.34-6.95-4.26-10.14-11.17-9.22a48.91,48.91,0,0,1-8.76.71c-5.65-.27-8.39-3.09-8.75-8.67-.19-2.81,0-5.63,0-8.45h.12m17.22-72.94c-6.22,2.5-9,6.13-8.47,11.09.4,3.68,2.11,6.84,5.72,7.95,3.39,1,6.13-.51,8.1-3.64.52-.83,2.19-.95,3.33-1.39.11,1.15.76,2.79.24,3.37-2.3,2.54-4.94,4.77-7.62,7.26,3.77,5.23,9.91,5.52,16.32,5.43-.34,5.83,1.27,10.34,7.08,12.33s10.14-.72,14.09-4.54c.46-.44.82-1.15,1.35-1.33a16.88,16.88,0,0,1,3-.45c0,1.13.35,2.42-.09,3.34a6.76,6.76,0,0,1-2.62,2.74c-3.85,2.26-7.81,4.34-12.16,6.73,1.13.72,2.34,2,3.77,2.31,3.78.93,7.64,1.5,11.48,2.14.87.14,1.81-.18,2.67,0,1.74.33,3.71.44,5.11,1.36,4.55,3,9,3.26,13.08-.27,2.22-1.91,3.69-4.69,5.73-7.38,6.4-.15,9.73-2.8,10.19-8.19a9.41,9.41,0,0,1,1.82-4.61,18.21,18.21,0,0,0,2.95-17.75c-1.28-3.81-5-5.27-8.62-3.43-1.21.61-2.07,1.91-3.27,2.56a11.75,11.75,0,0,1-3.26.72c0-1.14-.47-2.93.06-3.29,2.75-1.88,5.59-4.17,8.71-4.83,3.46-.73,3.85-2.49,2.69-4.69-1-1.95-3.15-3.32-5.18-5.34-.34-3.89-1.19-4.72-6.06-5.32-2.1-5.74-3.57-6.58-10.28-5.78-2.14-3.56-5.29-4.89-9.44-3.91a3.07,3.07,0,0,1-2-.34c-6.47-3.75-8-3.69-13.66.75-6.34-2.72-8.91-2-12.91,2.7-4,.5-7,.48-9.74,1.36-1.93.62-4,2.19-2.56,5,1.29,2.61,3,2,5.1,1,.79-.36,2.1.43,3.17.7-.35,1-.43,2.27-1.12,2.87-3.35,2.9-7.82,2.19-10.34-1.49-.7-1-1.29-2.09-1.89-3.1-4.07,1.65-4.57,2.5-4.46,7.33"/><path class="cls-5" d="M170.77,163.44c-2.15-2-4.82-3.44-5.88-5.67-1.26-2.64-3.17-3.7-5.28-5.26-2.71-2-4.66-5.12-6.57-8-.46-.69.56-2.35.9-3.56,1,.67,2.62,1.12,2.95,2,1.45,4,4,6.28,8.25,7a4.28,4.28,0,0,1,2.61,2.9c.48,2.75,1.31,4.77,4.28,5.64.85.24,1.34,1.71,2,2.61l-3.25,2.31"/><path class="cls-5" d="M167.39,125.52a9.15,9.15,0,0,1-.95-2.73c-.09-.93.54-1.94.85-2.91,1,.36,2.65.55,2.79,1.11,1,4.14,3.87,5.45,7.68,6.39,2,.49,3.68,2.61,5.05,4.35.57.71-.08,2.38-.18,3.61-1.06-.39-2.55-.46-3.12-1.22-2.8-3.75-6.38-4.21-10.56-3.13-1.79.45-4.18,2.37-5.1-.61-.3-.95,1.87-2.67,3.54-4.86"/><path class="cls-5" d="M152.45,124.2c.1,6-6.29,12-11.9,11.36a2.92,2.92,0,0,1-2.14-1.62,2.87,2.87,0,0,1,1.37-2.27c1.31-.72,2.92-.87,4.3-1.5,3-1.35,4.56-3.66,3.88-7-.36-1.77-1.24-3.92,1.37-4.15.84-.07,2,2.29,2.82,3.62a4,4,0,0,1,.3,1.61"/><path class="cls-5" d="M171.9,184c-5-.36-8.3-2.51-10-6.66-.41-1,.24-2.44.41-3.68,1.09.52,2.61.75,3.2,1.62,2.94,4.34,4.29,4.85,9.59,3.63,1.18-.27,2.6.5,3.92.79-.93,1.12-1.64,2.62-2.82,3.27-1.39.76-3.18.78-4.32,1"/><path class="cls-5" d="M138.79,148.62a67.77,67.77,0,0,1,3.27-7.62c.47-.84,2.26-.94,3.44-1.38a19,19,0,0,1,.07,3.61c-.48,3-1.07,6.08-1.78,9.07a17.36,17.36,0,0,1-1.51,3.29c-.88-.75-2.05-1.35-2.55-2.3s-.54-2.47-.94-4.67"/></g><g class="cls-2"><path class="cls-6" d="M39.74,86.36,58.15,97a3,3,0,0,1-3,5.26L36.7,91.62a3,3,0,1,1,3-5.26"/><rect class="cls-3" x="28.45" y="98.14" width="21.26" height="21.26" transform="translate(-74.66 88.22) rotate(-60)"/><path class="cls-6" d="M23,115.29l18.41,10.63a3,3,0,0,1-3,5.26L20,120.55a3,3,0,1,1,3-5.26"/><path class="cls-6" d="M49.8,111.45l33.63,17.67A4.55,4.55,0,0,1,78.88,137l-32.12-20.3Z"/><path class="cls-6" d="M12.88,149.39v-3a3,3,0,0,1,3-3H43.29a3,3,0,0,1,3,3v3l3,3H9.84Z"/></g></g></g></svg>