<svg id="Layer_1" data-name="Layer 1" xmlns="http://www.w3.org/2000/svg" xmlns:xlink="http://www.w3.org/1999/xlink" viewBox="0 0 239.33 237.88"><defs><style>.cls-1,.cls-6,.cls-7{fill:none;}.cls-2{clip-path:url(#clip-path);}.cls-3{fill:#ef4a39;}.cls-4{fill:#202c5d;}.cls-5{fill:#fff;}.cls-6{stroke:#202c5d;}.cls-6,.cls-7{stroke-miterlimit:10;stroke-width:4px;}.cls-7{stroke:#ef4a39;}</style><clipPath id="clip-path"><rect class="cls-1" width="239.33" height="237.88"/></clipPath></defs><title>Artboard 12</title><g id="Talk"><g class="cls-2"><g class="cls-2"><path class="cls-3" d="M119.67,1a118.25,118.25,0,0,1,83.91,34.55,117.43,117.43,0,0,1,0,166.78,119.18,119.18,0,0,1-167.83,0,117.43,117.43,0,0,1,0-166.78A118.28,118.28,0,0,1,119.67,1m0-1C53.58,0,0,53.25,0,118.94S53.58,237.88,119.67,237.88s119.66-53.25,119.66-118.94S185.76,0,119.67,0"/><path class="cls-4" d="M164.38,124.92c0-7.54-4.21-13.65-12-13.65h-1.65l.1,0c2.68,1.26,4.08,3.77,3.92,7.07a6.12,6.12,0,0,1-2,4.21A9.62,9.62,0,0,1,147,124.9a35.41,35.41,0,0,1-3.54.16,76.2,76.2,0,0,1-14.71-1.51c-4.31-1-9-1.94-12.28-2.64a18.6,18.6,0,0,0-.42,4c0,3.84-2.18,30.46-2.18,33a4.69,4.69,0,0,0,4.75,4.67,4.75,4.75,0,0,0,4.83-4.67c0-3,1.91-29.78,1.91-29.78H126v78.76a6.47,6.47,0,0,0,12.94,0v-44h2.65v44a6.47,6.47,0,0,0,12.94,0V128.17h.57S157,155,157,158a4.75,4.75,0,0,0,4.82,4.67,4.7,4.7,0,0,0,4.76-4.67c0-2.57-2.18-29.19-2.18-33"/><path class="cls-4" d="M140.23,108.54a10.66,10.66,0,1,0-11-10.65,10.83,10.83,0,0,0,11,10.65"/><path class="cls-3" d="M99.1,104.21a10.66,10.66,0,1,0-11-10.65,10.84,10.84,0,0,0,11,10.65"/><path class="cls-3" d="M113.37,107.1v99.63a6.48,6.48,0,0,1-13,0V158.6H97.78v48.13a6.48,6.48,0,0,1-13,0V123.84h-.56s-1.92,26.78-1.92,29.78a4.74,4.74,0,0,1-4.82,4.67,4.69,4.69,0,0,1-4.75-4.67c0-2.57,2.18-29.19,2.18-33,0-7.54,4.19-13.65,12-13.65h24.32a14.23,14.23,0,0,1,2.11.16"/><path class="cls-3" d="M113.37,107.1c7.36.88,12.07,3.1,22.46,4,4.81.4,11.59,1.52,13.9,2.6,1.74.81,2.55,2.33,2.44,4.6-.07,1.51-1.3,3.62-5.41,4.06a68.79,68.79,0,0,1-17.42-1.3c-7.77-1.73-16.64-3.55-16.64-3.55Z"/><path class="cls-5" d="M185.26,51.54c0,10.53-11.08,19.07-24.75,19.07a31.47,31.47,0,0,1-5.29-.44L144.35,80.3s1-7.53,1.84-13.21c-6.31-3.45-10.43-9.13-10.43-15.55,0-10.54,11.08-19.08,24.75-19.08S185.26,41,185.26,51.54"/><path class="cls-6" d="M185.26,51.54c0,10.53-11.08,19.07-24.75,19.07a31.47,31.47,0,0,1-5.29-.44L144.35,80.3s1-7.53,1.84-13.21c-6.31-3.45-10.43-9.13-10.43-15.55,0-10.54,11.08-19.08,24.75-19.08S185.26,41,185.26,51.54Z"/><path class="cls-5" d="M55,47.36c0,10.53,11.08,19.07,24.75,19.07A31.47,31.47,0,0,0,85,66L95.88,76.12s-1-7.53-1.84-13.21c6.31-3.45,10.43-9.13,10.43-15.55,0-10.54-11.08-19.08-24.75-19.08S55,36.82,55,47.36"/><path class="cls-7" d="M55,47.36c0,10.53,11.08,19.07,24.75,19.07A31.47,31.47,0,0,0,85,66L95.88,76.12s-1-7.53-1.84-13.21c6.31-3.45,10.43-9.13,10.43-15.55,0-10.54-11.08-19.08-24.75-19.08S55,36.82,55,47.36Z"/></g></g></g></svg>