<svg id="Layer_1" data-name="Layer 1" xmlns="http://www.w3.org/2000/svg" xmlns:xlink="http://www.w3.org/1999/xlink" viewBox="0 0 239.33 237.88"><defs><style>.cls-1{fill:none;}.cls-2{clip-path:url(#clip-path);}.cls-3{fill:#ef4a39;}.cls-4{fill:#202c5d;}</style><clipPath id="clip-path"><rect class="cls-1" width="239.33" height="237.88"/></clipPath></defs><title>Artboard 24</title><g id="Eat"><g class="cls-2"><g class="cls-2"><path class="cls-3" d="M119.67,1a118.25,118.25,0,0,1,83.91,34.55,117.44,117.44,0,0,1,0,166.79,119.21,119.21,0,0,1-167.83,0,117.44,117.44,0,0,1,0-166.79A118.28,118.28,0,0,1,119.67,1m0-1C53.58,0,0,53.25,0,118.94S53.58,237.88,119.67,237.88s119.66-53.25,119.66-118.94S185.76,0,119.67,0"/><path class="cls-3" d="M63.89,57.63A58.9,58.9,0,0,1,80,60.47a5.11,5.11,0,0,0,2.39.16c7-1.38,13.94-2.34,21.06-1.78a36,36,0,0,1,12,2.83c8.72,3.9,13.28,10.92,14.9,20.1a44.09,44.09,0,0,1-2.72,24c-4.42,11.39-11,21.22-20.63,28.93-4.73,3.81-10,6.6-16.12,7.41a20.85,20.85,0,0,1-4,.09,5.79,5.79,0,0,1-4-2.14c-1.36-1.52-2.67-1.8-4.24-.51-4.29,3.53-8.74,2.83-13.26.75-5.18-2.38-9.24-6.21-12.83-10.54A72.44,72.44,0,0,1,36.69,97.33,40.19,40.19,0,0,1,39,72.79c4.1-9.31,11.5-14.06,21.52-15,1.11-.1,2.23-.14,3.34-.21"/><path class="cls-4" d="M84.19,56.82c-1,.25-2.26.61-3.56.85a1.37,1.37,0,0,1-1.17-.39c-2.31-4.24-4.72-8.43-6.74-12.81-.84-1.84-.92-4.07-1.15-6.14a2.67,2.67,0,0,1,.92-1.86,7.54,7.54,0,0,1,6.18-1.82c-.07,6.07-.54,12.24,3,17.91.15-.38.25-.61.32-.84a32.44,32.44,0,0,1,30.31-23.67,33.41,33.41,0,0,1,10.44,1c.55.16,1.09.38,1.63.58.83.32,1,.79.75,1.72C122,41.89,115,48.15,104.36,50.37c-4.29.89-8.63,1.54-12.88,2.57a39.18,39.18,0,0,0-6.39,2.54c-.34.15-.5.72-.9,1.34"/><path class="cls-4" d="M115.65,201.68c-1.83-4.35-5.25-6.44-8.61-5.06.55,1.08,1.06,2.16,1.63,3.2,2.32,4.28,2.37,4.41-2.18,6.09-3.64,1.34-7.42,2.32-11.14,3.46l-.15,0c-4.29.63-6.13-.86-5.46-5.08a38.11,38.11,0,0,1,2.83-9.78c3.17-6.91,6.74-13.64,10.18-20.42.75-1.48,2.26-1.59,3.57-1.31a26.12,26.12,0,0,1,4.78,1.75c1.74.76,3.37,1.76,5.13,2.48,1.45.59,2,0,1.66-1.56-1-4.59-5.91-8.17-11.21-8,1.11-1.8,2.16-3.55,3.26-5.26,8.79-13.7,18-27.08,29.27-38.93,2.57-2.71,5.56-5,8.35-7.55,1.93-1.73,4.11-1.69,6.28-.7,2.53,1.15,5,2.51,7.45,3.74a27.49,27.49,0,0,0,3.61,1.59c1.49.5,2.17-.17,1.79-1.71a12.62,12.62,0,0,0-4.52-6.68c-.85-.71-1.81-1.3-2.91-2.09a18.67,18.67,0,0,1,8.18-.42,19.46,19.46,0,0,1,10.07,4.75,69.36,69.36,0,0,1,8.2,8.33c5.46,6.8,6.16,14.33,2.49,22.24-.71,1.54-1.58,3-2.5,4.74-.4-1-.64-1.82-1-2.55a8.9,8.9,0,0,0-6.39-5.32c-1.52-.31-2.15.35-1.53,1.75,1.11,2.5,2.4,4.91,3.61,7.36,1.31,2.67,1.11,4.24-.89,6.34-7.08,7.42-15.15,13.67-23.41,19.68-2.24,1.62-4.51,3.19-6.9,4.88a10.5,10.5,0,0,0-5.93-8.24,13.84,13.84,0,0,0-3.59-.66,18.24,18.24,0,0,0,.78,3.26c.89,2,2,3.91,2.95,5.89s.76,3.23-1.21,4.39q-12.48,7.35-25,14.62c-.5.29-1,.53-1.55.79m42.74-47.39c-.11-.92-.15-1.51-.27-2.08-1.61-7.73-10.1-13.53-17.87-12.16a8.67,8.67,0,0,0-2.15,1,7.67,7.67,0,0,0,1.52,1.63,43.21,43.21,0,0,1,14.06,13,12.3,12.3,0,0,0,1.53,1.78c1.08,1.06,1.84,1,2.44-.47a19.12,19.12,0,0,0,.74-2.78"/><path class="cls-3" d="M201.89,106.28c4.28-.08,8.6-.33,12.91-.16a23.81,23.81,0,0,1,7,1.46c3.16,1.14,3.39,3.39.73,5.43-2.94,2.24-6.42,3.28-9.92,4.15a61.29,61.29,0,0,1-20.2,1.62c-7.34-.63-11.29-5-12-12.15a57.16,57.16,0,0,1,2.88-25.39,18.91,18.91,0,0,1,2.63-4.86c1.62-2.17,3.55-1.94,4.83.45,1.68,3.14,2,6.63,2.09,10.09s-.27,6.72-.43,10.09c0,.37,0,.75,0,1.22,2.16-1.94,4.13-4,6.37-5.66a87.09,87.09,0,0,1,8.2-5.32,9.37,9.37,0,0,1,3.49-1c1.78-.23,3,.81,2.68,2.55a19,19,0,0,1-1.81,5.49,47.93,47.93,0,0,1-8.57,11.09c-.27.28-.54.56-.8.85-.06.06,0,.18,0,0"/></g></g></g></svg>