<svg id="Layer_1" data-name="Layer 1" xmlns="http://www.w3.org/2000/svg" xmlns:xlink="http://www.w3.org/1999/xlink" viewBox="0 0 239.33 237.88"><defs><style>.cls-1{fill:none;}.cls-2{clip-path:url(#clip-path);}.cls-3{fill:#ef4a39;}.cls-4{fill:#202c5d;}</style><clipPath id="clip-path"><rect class="cls-1" width="239.33" height="237.88"/></clipPath></defs><title>Artboard 17</title><g id="Emotion"><g class="cls-2"><g class="cls-2"><path class="cls-3" d="M119.67,1a118.25,118.25,0,0,1,83.91,34.55,117.43,117.43,0,0,1,0,166.78,119.18,119.18,0,0,1-167.83,0,117.43,117.43,0,0,1,0-166.78A118.28,118.28,0,0,1,119.67,1m0-1C53.58,0,0,53.25,0,118.94S53.58,237.88,119.67,237.88s119.66-53.25,119.66-118.94S185.76,0,119.67,0"/><path class="cls-3" d="M55.71,141.13c-19.88,0-36.06-15.69-36.06-35s16.18-35,36.06-35,36.07,15.7,36.07,35-16.18,35-36.07,35m0-64.85c-17.05,0-30.93,13.4-30.93,29.87S38.66,136,55.71,136s30.94-13.39,30.94-29.85S72.77,76.28,55.71,76.28"/><path class="cls-4" d="M66,117.05c0,6.44-4.87,11.66-10.87,11.66s-10.87-5.22-10.87-11.66,4.86-11.67,10.87-11.67S66,110.61,66,117.05"/><path class="cls-4" d="M47,93.88C47,96.69,45.18,99,43,99s-4.05-2.28-4.05-5.09S40.71,88.8,43,88.8s4,2.27,4,5.08"/><path class="cls-4" d="M71.25,93.88c0,2.81-1.81,5.09-4,5.09s-4-2.28-4-5.09,1.82-5.08,4-5.08,4,2.27,4,5.08"/><path class="cls-3" d="M120.46,99.63c-19.89,0-36.06-15.69-36.06-35s16.17-35,36.06-35,36.07,15.7,36.07,35-16.18,35-36.07,35m0-64.84c-17.06,0-30.93,13.4-30.93,29.86s13.87,29.86,30.93,29.86,30.94-13.4,30.94-29.86-13.88-29.86-30.94-29.86"/><path class="cls-4" d="M112.62,57.09a6.78,6.78,0,0,1-13.56,0Z"/><path class="cls-4" d="M141.44,57.09a6.78,6.78,0,0,1-13.56,0Z"/><path class="cls-4" d="M133.62,80.37H106.88a1,1,0,0,1,0-2h26.74a1,1,0,0,1,0,2"/><path class="cls-3" d="M183.9,141.83c-19.88,0-36.06-15.69-36.06-35s16.18-35,36.06-35S220,87.55,220,106.85s-16.18,35-36.07,35m0-64.85C166.85,77,153,90.38,153,106.85s13.88,29.85,30.93,29.85,30.94-13.39,30.94-29.85S201,77,183.9,77"/><path class="cls-4" d="M176.47,95.91a6.78,6.78,0,1,1-11.67,6.91Z"/><path class="cls-4" d="M205.1,102.8a6.78,6.78,0,0,1-11.69-6.87Z"/><path class="cls-4" d="M171.11,122.32a1,1,0,0,1-.82-.42,1,1,0,0,1,.24-1.39c.28-.2,6.86-4.76,13.37-4.76s12.86,4.57,13.13,4.77a1,1,0,1,1-1.18,1.61c-.06,0-6.08-4.38-11.95-4.38s-12.16,4.35-12.22,4.39a.92.92,0,0,1-.57.18"/><path class="cls-3" d="M107.31,174.33a2.07,2.07,0,0,1-.6-1.55v-2.15a16.06,16.06,0,0,1,1.8-7.83,18.35,18.35,0,0,1,4.3-5.38c1.67-1.39,3.86-3,6.57-4.84a37.81,37.81,0,0,0,6.64-5,7.13,7.13,0,0,0,2.09-5.14,6,6,0,0,0-2.51-5.08,11.05,11.05,0,0,0-6.69-1.85,11.54,11.54,0,0,0-7.24,2.09A6.58,6.58,0,0,0,109,143v.59a2.14,2.14,0,0,1-.59,1.56,1.77,1.77,0,0,1-1.56.48l-15.54-.72c-1.43-.16-2.15-.52-2.15-1.08V143A23.67,23.67,0,0,1,93,129.69a25.3,25.3,0,0,1,10.7-9,36.43,36.43,0,0,1,15.71-3.23,36.26,36.26,0,0,1,15.24,3,23,23,0,0,1,10,8.42,22.68,22.68,0,0,1,3.53,12.61,20.09,20.09,0,0,1-1.91,9.15,20.64,20.64,0,0,1-4.6,6.15,59.9,59.9,0,0,1-6.88,5.14,38.36,38.36,0,0,0-6.21,4.84,7,7,0,0,0-2,5.08v1a2.07,2.07,0,0,1-.6,1.55,2.11,2.11,0,0,1-1.56.6H108.86a2.1,2.1,0,0,1-1.55-.6m2.21,25.34a9.84,9.84,0,0,1-3.28-7.41,10.11,10.11,0,0,1,3.34-7.59,11.5,11.5,0,0,1,15.84,0,10,10,0,0,1,0,15,11.39,11.39,0,0,1-8,3.11,11.12,11.12,0,0,1-8-3.11"/></g></g></g></svg>