<svg id="Layer_1" data-name="Layer 1" xmlns="http://www.w3.org/2000/svg" xmlns:xlink="http://www.w3.org/1999/xlink" viewBox="0 0 239.33 237.88"><defs><style>.cls-1{fill:none;}.cls-2{clip-path:url(#clip-path);}.cls-3{fill:#ee4a39;}.cls-4{fill:#1f2b5d;}</style><clipPath id="clip-path"><rect class="cls-1" width="239.33" height="237.88"/></clipPath></defs><title>Artboard 25</title><g id="Artwork_1" data-name="Artwork 1"><g class="cls-2"><g class="cls-2"><path class="cls-3" d="M119.67,1a118.25,118.25,0,0,1,83.91,34.55,117.43,117.43,0,0,1,0,166.78,119.18,119.18,0,0,1-167.83,0,117.43,117.43,0,0,1,0-166.78A118.28,118.28,0,0,1,119.67,1m0-1C53.58,0,0,53.25,0,118.94S53.58,237.88,119.67,237.88s119.66-53.25,119.66-118.94S185.76,0,119.67,0"/><path class="cls-4" d="M147.7,75.15l-4.13-22.24a10.08,10.08,0,0,0-11.76-8.07L83.87,53.76a10.07,10.07,0,0,0-8.06,11.75l1.66,9-.71.13,1,5.19.72-.13.87,4.7-.71.13,1.84,9.89.71-.13.5,2.72-.71.13L82.78,107l.71-.14,14.37,77.24a10.06,10.06,0,0,0,11.75,8.07l47.94-8.91a10.09,10.09,0,0,0,8.07-11.76l-15-80.6.71-.13L148.42,75ZM116.09,52.56a1,1,0,0,1,1.21.84,1,1,0,0,1-2,.38,1.05,1.05,0,0,1,.84-1.22m-11.16,2.67a.66.66,0,0,1,.43-.27l6.88-1.28a.66.66,0,0,1,.67,1,.62.62,0,0,1-.43.28l-6.87,1.28a.66.66,0,0,1-.78-.53.65.65,0,0,1,.1-.51m56.65,117a6,6,0,0,1-4.78,7l-47.94,8.92a6,6,0,0,1-7-4.79l-22-118.58a6,6,0,0,1,4.78-7l5.07-.95a2,2,0,0,1,2.51,1.73s0,.06,0,.09a2.8,2.8,0,0,0,3.28,2.25l28-5.21a2.81,2.81,0,0,0,2.25-3.28,2,2,0,0,1,1.71-2.6l5.07-1a6,6,0,0,1,7,4.79Z"/><path class="cls-3" d="M119.67,223A104.56,104.56,0,1,1,224.22,118.47,104.67,104.67,0,0,1,119.67,223m0-189.65a85.1,85.1,0,1,0,85.1,85.1,85.19,85.19,0,0,0-85.1-85.1"/><rect class="cls-3" x="21.43" y="107.48" width="189.7" height="21.97" transform="translate(-49.71 116.92) rotate(-45)"/></g></g></g></svg>